<svg width="40" height="40" viewBox="0 0 40 40" fill="none" xmlns="http://www.w3.org/2000/svg">
<path d="M10 12.5C10 11.7031 10.6562 11 11.5 11H22.5C23.2969 11 24 11.7031 24 12.5C24 13.3438 23.2969 14 22.5 14H11.5C10.6562 14 10 13.3438 10 12.5ZM10 20C10 19.2031 10.6562 18.5 11.5 18.5H29.5C30.2969 18.5 31 19.2031 31 20C31 20.8438 30.2969 21.5 29.5 21.5H11.5C10.6562 21.5 10 20.8438 10 20ZM29.5 29H11.5C10.6562 29 10 28.3438 10 27.5C10 26.7031 10.6562 26 11.5 26H29.5C30.2969 26 31 26.7031 31 27.5C31 28.3438 30.2969 29 29.5 29Z" fill="#F5F5F5"/>
</svg>
