<svg width="40" height="40" viewBox="0 0 40 40" fill="none" xmlns="http://www.w3.org/2000/svg">
<path d="M24.9531 26.2969C25.6641 26.9531 25.6641 28.1016 24.9531 28.7578C24.625 29.0859 24.1875 29.25 23.75 29.25C23.2578 29.25 22.8203 29.0859 22.4922 28.7578L16.75 23.0156L10.9531 28.7578C10.625 29.0859 10.1875 29.25 9.75 29.25C9.25781 29.25 8.82031 29.0859 8.49219 28.7578C7.78125 28.1016 7.78125 26.9531 8.49219 26.2969L14.2344 20.5L8.49219 14.7578C7.78125 14.1016 7.78125 12.9531 8.49219 12.2969C9.14844 11.5859 10.2969 11.5859 10.9531 12.2969L16.75 18.0391L22.4922 12.2969C23.1484 11.5859 24.2969 11.5859 24.9531 12.2969C25.6641 12.9531 25.6641 14.1016 24.9531 14.7578L19.2109 20.5547L24.9531 26.2969Z" fill="#F5F5F5"/>
</svg>
